<mxfile host="app.diagrams.net" modified="2022-06-14T07:38:01.458Z" agent="5.0 (Windows NT 10.0; Win64; x64) AppleWebKit/537.36 (KHTML, like Gecko) Chrome/102.0.5005.115 Safari/537.36" etag="FtlNmJzUnHP5WCysTkMj" version="20.0.1" type="github">
  <diagram id="E52hsqWbabeIgVs1ZWVQ" name="Page-1">
    <mxGraphModel dx="1108" dy="1101" grid="1" gridSize="10" guides="1" tooltips="1" connect="1" arrows="1" fold="1" page="1" pageScale="1" pageWidth="850" pageHeight="1100" math="0" shadow="0">
      <root>
        <mxCell id="0" />
        <mxCell id="1" parent="0" />
        <mxCell id="-YXTODcU-iKC6em4IWOb-1" value="Internet / VPN" style="ellipse;shape=cloud;whiteSpace=wrap;html=1;" parent="1" vertex="1">
          <mxGeometry x="310" y="310" width="120" height="80" as="geometry" />
        </mxCell>
      </root>
    </mxGraphModel>
  </diagram>
</mxfile>
